<svg version="1.1" id="Layer_1" xmlns="http://www.w3.org/2000/svg" xmlns:xlink="http://www.w3.org/1999/xlink" x="0px" y="0px"
	 width="100%" viewBox="0 0 217 232" enable-background="new 0 0 217 232" xml:space="preserve">
<path fill="#040404" opacity="1.000000" stroke="none" 
	d="
M89.000000,0.999999 
	C92.030594,1.000000 95.061188,1.000000 98.733902,1.343849 
	C104.374786,3.688485 109.827629,4.979788 114.282242,7.830790 
	C125.132713,14.775207 127.595139,26.295778 129.039642,38.060329 
	C130.047592,46.269287 130.876389,54.500233 131.778061,62.656597 
	C139.957703,62.656597 147.881363,62.656597 156.109940,62.656597 
	C156.109940,56.090710 156.321640,49.778660 155.983063,43.496273 
	C155.879288,41.570896 154.717834,39.218769 153.268234,37.933033 
	C146.832794,32.225071 146.020782,22.780785 151.768021,16.618374 
	C157.365326,10.616731 167.013382,10.457457 172.772552,16.271620 
	C178.652298,22.207506 178.056686,31.785650 171.772095,37.677685 
	C170.346725,39.014015 169.237045,41.393696 169.161774,43.338787 
	C168.865738,50.987476 169.045837,58.654388 169.039154,66.314529 
	C169.032547,73.894241 167.170547,75.794693 159.697495,75.806625 
	C150.601746,75.821144 141.505966,75.810074 132.725189,75.810074 
	C132.725189,82.653999 132.725189,88.875084 132.725189,95.353058 
	C134.249054,95.353058 135.223755,95.353050 136.198441,95.353058 
	C153.350510,95.353310 170.503220,95.416443 187.653442,95.239029 
	C189.085022,95.224220 190.821823,93.867416 191.869751,92.659500 
	C198.288437,85.260796 209.553436,85.582954 215.080872,93.535866 
	C216.251373,95.220009 217.037033,97.171623 218.000000,99.000000 
	C218.000000,100.714355 218.000000,102.428719 217.679504,104.723419 
	C213.085953,116.248131 201.499222,120.320114 194.130219,112.598991 
	C190.014587,108.286705 185.943710,108.062386 180.998932,108.084633 
	C165.034286,108.156433 149.069122,108.111404 132.633057,108.111404 
	C132.633057,115.887383 132.633057,123.267563 132.633057,130.949234 
	C134.361099,130.949234 136.002701,130.949249 137.644287,130.949234 
	C158.477081,130.949234 179.309891,130.941391 200.142685,130.953674 
	C206.970154,130.957703 208.991379,132.993637 208.997406,139.844681 
	C209.009720,153.844315 208.962906,167.844223 209.057968,181.843216 
	C209.067886,183.304123 209.532730,184.995117 210.362946,186.173096 
	C212.750244,189.560349 215.433212,192.739227 218.000000,196.000000 
	C218.000000,198.041672 218.000000,200.083328 217.667267,202.663666 
	C216.816391,204.242142 216.365982,205.322708 215.769272,206.315308 
	C211.456238,213.489532 201.714676,215.559265 194.932373,210.767563 
	C188.065964,205.916443 186.348648,195.748657 192.321426,189.822830 
	C195.643219,186.527191 196.142960,183.314957 196.017319,179.307907 
	C195.912994,175.980469 195.995956,172.647156 195.995956,169.316452 
	C195.995956,160.888260 195.995956,152.460068 195.995956,144.088608 
	C174.269897,144.088608 153.160538,144.088608 131.468018,144.088608 
	C131.468018,150.168686 131.468018,156.058304 131.468018,162.285919 
	C137.625885,162.285919 143.923706,162.214722 150.219086,162.307297 
	C155.773392,162.388977 157.981781,164.686813 158.020996,170.286911 
	C158.068802,177.114532 157.868027,183.949402 158.143509,190.766235 
	C158.216537,192.573410 159.193665,194.827469 160.523788,196.018570 
	C167.046677,201.859756 167.887283,211.080353 162.156342,217.370407 
	C156.575516,223.495651 146.444626,223.509476 140.806595,217.399521 
	C135.049515,211.160553 135.772400,201.860214 142.419250,196.136810 
	C143.361496,195.325455 144.845169,194.350204 144.880020,193.406540 
	C145.104218,187.338928 144.994568,181.258987 144.994568,175.346436 
	C139.504990,175.346436 134.742477,175.346436 129.722153,175.346436 
	C129.488480,177.707840 129.213989,179.840271 129.077026,181.981506 
	C128.590729,189.584167 129.126770,197.407516 127.488564,204.748474 
	C124.204498,219.464661 114.808868,229.074463 100.000000,233.000000 
	C96.307091,233.000000 92.614182,233.000000 88.321198,232.655823 
	C73.727547,228.700836 63.935665,220.444992 58.976284,206.649902 
	C58.575260,205.534424 56.876347,204.322495 55.643585,204.153305 
	C36.271282,201.494583 18.196901,183.698013 17.131542,164.181061 
	C16.594048,154.334335 15.066861,145.999405 8.219624,138.369522 
	C4.599416,134.335526 3.330476,128.191437 0.999999,123.000000 
	C1.000000,121.933327 1.000000,120.866661 1.325855,119.206131 
	C1.434474,116.741508 1.217237,114.870758 1.000000,113.000000 
	C1.000000,111.933327 1.000000,110.866661 1.352054,109.265320 
	C4.176848,97.593948 10.024819,88.482094 18.953888,81.563530 
	C21.984772,79.215088 22.800173,76.795120 22.835875,73.237289 
	C23.022493,54.640419 36.538921,33.867706 55.974651,29.633326 
	C57.416187,29.319263 58.985901,27.307552 59.570747,25.739874 
	C62.213573,18.655727 66.320396,12.593246 72.701454,8.676447 
	C77.788345,5.554025 83.542206,3.518179 89.000000,0.999999 
M87.262459,160.657730 
	C91.922913,159.362610 95.363564,161.244003 96.790108,165.506439 
	C98.123962,169.491882 96.443031,172.684402 92.631203,175.119263 
	C87.628853,178.314621 82.376595,181.540573 78.404083,185.837204 
	C70.488518,194.398636 71.849571,204.671890 81.025238,212.400833 
	C89.829605,219.816986 101.623650,219.157516 108.516563,210.580002 
	C113.406555,204.494934 116.251808,197.617264 116.233788,189.526794 
	C116.126556,141.379333 116.104782,93.231239 116.263123,45.084053 
	C116.286667,37.923622 114.186935,31.680468 110.415436,25.891336 
	C106.230080,19.466944 100.463135,15.543451 92.438957,16.687197 
	C83.486954,17.963192 77.034691,22.845558 74.104233,31.486145 
	C71.453606,39.301666 75.391716,45.257023 80.528091,50.695602 
	C84.102982,54.480827 84.249298,59.122082 81.077675,62.199100 
	C77.901787,65.280258 73.075172,65.241302 69.645287,61.296688 
	C65.564377,56.603344 62.118767,51.357601 57.881939,45.657005 
	C56.251007,46.536259 53.623222,47.533085 51.491360,49.174149 
	C41.712509,56.701721 37.834614,66.951897 38.895233,78.995735 
	C39.356709,84.235992 38.185024,88.111824 33.383194,90.631355 
	C32.072132,91.319275 30.911467,92.313583 29.734945,93.235153 
	C13.600366,105.873482 13.033550,124.414314 28.358471,138.007431 
	C28.980862,138.559494 29.595629,139.129883 30.272228,139.609497 
	C34.052876,142.289505 34.438320,145.786743 33.741146,150.176361 
	C32.975304,154.998322 32.390202,160.146332 33.255646,164.872223 
	C35.516239,177.216507 48.321110,188.115509 59.345856,187.857986 
	C64.327072,174.828873 74.445457,166.867035 87.262459,160.657730 
z"/>
<path fill="#FEFEFE" opacity="1.000000" stroke="none" 
	d="
M218.000000,98.531342 
	C217.037033,97.171623 216.251373,95.220009 215.080872,93.535866 
	C209.553436,85.582954 198.288437,85.260796 191.869751,92.659500 
	C190.821823,93.867416 189.085022,95.224220 187.653442,95.239029 
	C170.503220,95.416443 153.350510,95.353310 136.198441,95.353058 
	C135.223755,95.353050 134.249054,95.353058 132.725189,95.353058 
	C132.725189,88.875084 132.725189,82.653999 132.725189,75.810074 
	C141.505966,75.810074 150.601746,75.821144 159.697495,75.806625 
	C167.170547,75.794693 169.032547,73.894241 169.039154,66.314529 
	C169.045837,58.654388 168.865738,50.987476 169.161774,43.338787 
	C169.237045,41.393696 170.346725,39.014015 171.772095,37.677685 
	C178.056686,31.785650 178.652298,22.207506 172.772552,16.271620 
	C167.013382,10.457457 157.365326,10.616731 151.768021,16.618374 
	C146.020782,22.780785 146.832794,32.225071 153.268234,37.933033 
	C154.717834,39.218769 155.879288,41.570896 155.983063,43.496273 
	C156.321640,49.778660 156.109940,56.090710 156.109940,62.656597 
	C147.881363,62.656597 139.957703,62.656597 131.778061,62.656597 
	C130.876389,54.500233 130.047592,46.269287 129.039642,38.060329 
	C127.595139,26.295778 125.132713,14.775207 114.282242,7.830790 
	C109.827629,4.979788 104.374786,3.688485 99.188011,1.343849 
	C138.586548,1.000000 178.173080,1.000000 218.000000,1.000000 
	C218.000000,33.353832 218.000000,65.708260 218.000000,98.531342 
z"/>
<path fill="#FDFDFD" opacity="1.000000" stroke="none" 
	d="
M100.468658,233.000000 
	C114.808868,229.074463 124.204498,219.464661 127.488564,204.748474 
	C129.126770,197.407516 128.590729,189.584167 129.077026,181.981506 
	C129.213989,179.840271 129.488480,177.707840 129.722153,175.346436 
	C134.742477,175.346436 139.504990,175.346436 144.994568,175.346436 
	C144.994568,181.258987 145.104218,187.338928 144.880020,193.406540 
	C144.845169,194.350204 143.361496,195.325455 142.419250,196.136810 
	C135.772400,201.860214 135.049515,211.160553 140.806595,217.399521 
	C146.444626,223.509476 156.575516,223.495651 162.156342,217.370407 
	C167.887283,211.080353 167.046677,201.859756 160.523788,196.018570 
	C159.193665,194.827469 158.216537,192.573410 158.143509,190.766235 
	C157.868027,183.949402 158.068802,177.114532 158.020996,170.286911 
	C157.981781,164.686813 155.773392,162.388977 150.219086,162.307297 
	C143.923706,162.214722 137.625885,162.285919 131.468018,162.285919 
	C131.468018,156.058304 131.468018,150.168686 131.468018,144.088608 
	C153.160538,144.088608 174.269897,144.088608 195.995956,144.088608 
	C195.995956,152.460068 195.995956,160.888260 195.995956,169.316452 
	C195.995956,172.647156 195.912994,175.980469 196.017319,179.307907 
	C196.142960,183.314957 195.643219,186.527191 192.321426,189.822830 
	C186.348648,195.748657 188.065964,205.916443 194.932373,210.767563 
	C201.714676,215.559265 211.456238,213.489532 215.769272,206.315308 
	C216.365982,205.322708 216.816391,204.242142 217.667267,203.101166 
	C218.000000,212.970352 218.000000,222.940704 218.000000,233.000000 
	C178.979141,233.000000 139.958237,233.000000 100.468658,233.000000 
z"/>
<path fill="#FEFEFE" opacity="1.000000" stroke="none" 
	d="
M88.531342,0.999999 
	C83.542206,3.518179 77.788345,5.554025 72.701454,8.676447 
	C66.320396,12.593246 62.213573,18.655727 59.570747,25.739874 
	C58.985901,27.307552 57.416187,29.319263 55.974651,29.633326 
	C36.538921,33.867706 23.022493,54.640419 22.835875,73.237289 
	C22.800173,76.795120 21.984772,79.215088 18.953888,81.563530 
	C10.024819,88.482094 4.176848,97.593948 1.352054,108.865326 
	C1.000000,73.080528 1.000000,37.161057 1.000000,1.000000 
	C30.020447,1.000000 59.041565,1.000000 88.531342,0.999999 
z"/>
<path fill="#FEFEFE" opacity="1.000000" stroke="none" 
	d="
M0.999999,123.468658 
	C3.330476,128.191437 4.599416,134.335526 8.219624,138.369522 
	C15.066861,145.999405 16.594048,154.334335 17.131542,164.181061 
	C18.196901,183.698013 36.271282,201.494583 55.643585,204.153305 
	C56.876347,204.322495 58.575260,205.534424 58.976284,206.649902 
	C63.935665,220.444992 73.727547,228.700836 87.860558,232.655823 
	C59.064537,233.000000 30.129074,233.000000 1.000000,233.000000 
	C1.000000,196.645996 1.000000,160.291656 0.999999,123.468658 
z"/>
<path fill="#FCFCFC" opacity="1.000000" stroke="none" 
	d="
M218.000000,195.531342 
	C215.433212,192.739227 212.750244,189.560349 210.362946,186.173096 
	C209.532730,184.995117 209.067886,183.304123 209.057968,181.843216 
	C208.962906,167.844223 209.009720,153.844315 208.997406,139.844681 
	C208.991379,132.993637 206.970154,130.957703 200.142685,130.953674 
	C179.309891,130.941391 158.477081,130.949234 137.644287,130.949234 
	C136.002701,130.949249 134.361099,130.949234 132.633057,130.949234 
	C132.633057,123.267563 132.633057,115.887383 132.633057,108.111404 
	C149.069122,108.111404 165.034286,108.156433 180.998932,108.084633 
	C185.943710,108.062386 190.014587,108.286705 194.130219,112.598991 
	C201.499222,120.320114 213.085953,116.248131 217.679504,105.151886 
	C218.000000,135.020889 218.000000,165.041794 218.000000,195.531342 
z"/>
<path fill="#4D4D4D" opacity="1.000000" stroke="none" 
	d="
M1.000000,113.428467 
	C1.217237,114.870758 1.434474,116.741508 1.325855,118.806137 
	C1.000000,117.285645 1.000000,115.571281 1.000000,113.428467 
z"/>
<path fill="#FDFDFD" opacity="1.000000" stroke="none" 
	d="
M86.898224,160.779785 
	C74.445457,166.867035 64.327072,174.828873 59.345856,187.857986 
	C48.321110,188.115509 35.516239,177.216507 33.255646,164.872223 
	C32.390202,160.146332 32.975304,154.998322 33.741146,150.176361 
	C34.438320,145.786743 34.052876,142.289505 30.272228,139.609497 
	C29.595629,139.129883 28.980862,138.559494 28.358471,138.007431 
	C13.033550,124.414314 13.600366,105.873482 29.734945,93.235153 
	C30.911467,92.313583 32.072132,91.319275 33.383194,90.631355 
	C38.185024,88.111824 39.356709,84.235992 38.895233,78.995735 
	C37.834614,66.951897 41.712509,56.701721 51.491360,49.174149 
	C53.623222,47.533085 56.251007,46.536259 57.881939,45.657005 
	C62.118767,51.357601 65.564377,56.603344 69.645287,61.296688 
	C73.075172,65.241302 77.901787,65.280258 81.077675,62.199100 
	C84.249298,59.122082 84.102982,54.480827 80.528091,50.695602 
	C75.391716,45.257023 71.453606,39.301666 74.104233,31.486145 
	C77.034691,22.845558 83.486954,17.963192 92.438957,16.687197 
	C100.463135,15.543451 106.230080,19.466944 110.415436,25.891336 
	C114.186935,31.680468 116.286667,37.923622 116.263123,45.084053 
	C116.104782,93.231239 116.126556,141.379333 116.233788,189.526794 
	C116.251808,197.617264 113.406555,204.494934 108.516563,210.580002 
	C101.623650,219.157516 89.829605,219.816986 81.025238,212.400833 
	C71.849571,204.671890 70.488518,194.398636 78.404083,185.837204 
	C82.376595,181.540573 87.628853,178.314621 92.631203,175.119263 
	C96.443031,172.684402 98.123962,169.491882 96.790108,165.506439 
	C95.363564,161.244003 91.922913,159.362610 86.898224,160.779785 
M66.617691,96.211502 
	C68.487740,93.888931 70.388283,91.590134 72.220596,89.238159 
	C74.883820,85.819611 74.754211,81.691612 71.953026,78.841805 
	C69.114021,75.953514 64.467522,75.819183 61.151188,78.612892 
	C60.141872,79.463142 59.263855,80.483795 58.400341,81.490433 
	C42.343712,100.208321 41.661396,127.428909 56.741718,147.159607 
	C60.156101,151.626892 64.533592,152.750519 68.330338,150.134186 
	C72.241966,147.438690 72.525436,142.758713 69.144890,137.939362 
	C59.949272,124.830032 58.416149,111.154816 66.617691,96.211502 
z"/>
<path fill="#030303" opacity="1.000000" stroke="none" 
	d="
M66.404617,96.515213 
	C58.416149,111.154816 59.949272,124.830032 69.144890,137.939362 
	C72.525436,142.758713 72.241966,147.438690 68.330338,150.134186 
	C64.533592,152.750519 60.156101,151.626892 56.741718,147.159607 
	C41.661396,127.428909 42.343712,100.208321 58.400341,81.490433 
	C59.263855,80.483795 60.141872,79.463142 61.151188,78.612892 
	C64.467522,75.819183 69.114021,75.953514 71.953026,78.841805 
	C74.754211,81.691612 74.883820,85.819611 72.220596,89.238159 
	C70.388283,91.590134 68.487740,93.888931 66.404617,96.515213 
z"/>
</svg>